<svg width="35" height="35" viewBox="0 0 35 35" fill="none" xmlns="http://www.w3.org/2000/svg">
<path d="M10.7521 17.5448C12.0786 17.5448 13.1133 18.0765 13.8561 19.1399C14.6519 20.1473 15.0499 21.4065 15.0499 22.9177C15.0499 24.5408 14.5193 25.8839 13.4581 26.9473C12.397 27.9546 11.0705 28.4584 9.47874 28.4584C7.67474 28.4584 6.18911 27.7589 5.0218 26.3596C3.85451 24.9605 3.27087 23.1415 3.27087 20.9029C3.27087 17.7687 4.22593 14.9144 6.13604 12.3399C8.04616 9.76541 10.8848 7.5827 14.6519 5.79175V7.89051C12.4235 8.95389 10.5134 10.3531 8.92162 12.088C7.32986 13.7671 6.53398 15.446 6.53398 17.1251C6.53398 18.2444 6.8258 18.8041 7.40945 18.8041C7.51556 18.8041 7.64822 18.7761 7.80739 18.7201C7.96657 18.6082 8.12575 18.5243 8.28492 18.4682C9.08079 17.8527 9.90321 17.5448 10.7521 17.5448ZM27.3065 17.5448C28.6329 17.5448 29.6676 18.0765 30.4104 19.1399C31.2063 20.1473 31.6042 21.4065 31.6042 22.9177C31.6042 24.5408 31.0737 25.8839 30.0124 26.9473C28.9512 27.9546 27.6248 28.4584 26.033 28.4584C24.229 28.4584 22.7434 27.7589 21.576 26.3596C20.4089 24.9605 19.8252 23.1415 19.8252 20.9029C19.8252 17.7687 20.7803 14.9144 22.6904 12.3399C24.6005 9.76541 27.4391 7.5827 31.2063 5.79175V7.89051C28.9779 8.95389 27.0678 10.3531 25.476 12.088C23.8842 13.7671 23.0883 15.446 23.0883 17.1251C23.0883 18.2444 23.3802 18.8041 23.9637 18.8041C24.0698 18.8041 24.2026 18.7761 24.3616 18.7201C24.5209 18.6082 24.6801 18.5243 24.8392 18.4682C25.6351 17.8527 26.4575 17.5448 27.3065 17.5448Z" fill="#FF6D2C"/>
</svg>
