<svg width="141" height="54" viewBox="0 0 141 54" fill="none" xmlns="http://www.w3.org/2000/svg">
<path d="M12.75 4.32812L15.84 10.2524L22.75 11.2083L17.75 15.8171L18.93 22.3281L12.75 19.2524L6.57 22.3281L7.75 15.8171L2.75 11.2083L9.66 10.2524L12.75 4.32812Z" fill="white"/>
<path d="M40.75 4.32812L43.84 10.2524L50.75 11.2083L45.75 15.8171L46.93 22.3281L40.75 19.2524L34.57 22.3281L35.75 15.8171L30.75 11.2083L37.66 10.2524L40.75 4.32812Z" fill="white"/>
<path d="M68.75 4.32812L71.84 10.2524L78.75 11.2083L73.75 15.8171L74.93 22.3281L68.75 19.2524L62.57 22.3281L63.75 15.8171L58.75 11.2083L65.66 10.2524L68.75 4.32812Z" fill="white"/>
<path d="M96.75 4.32812L99.84 10.2524L106.75 11.2083L101.75 15.8171L102.93 22.3281L96.75 19.2524L90.57 22.3281L91.75 15.8171L86.75 11.2083L93.66 10.2524L96.75 4.32812Z" fill="white"/>
<path d="M124.75 4.32812L127.84 10.2524L134.75 11.2083L129.75 15.8171L130.93 22.3281L124.75 19.2524L118.57 22.3281L119.75 15.8171L114.75 11.2083L121.66 10.2524L124.75 4.32812Z" fill="white"/>
<path d="M5.71023 47.4872C4.99811 47.4872 4.35795 47.3509 3.78977 47.0781C3.22538 46.8016 2.77462 46.4228 2.4375 45.9418C2.10038 45.4607 1.92045 44.9115 1.89773 44.294H3.60227C3.64394 44.794 3.86553 45.205 4.26705 45.527C4.66856 45.849 5.14962 46.0099 5.71023 46.0099C6.1572 46.0099 6.55303 45.9077 6.89773 45.7031C7.24621 45.4948 7.51894 45.2088 7.71591 44.8452C7.91667 44.4815 8.01705 44.0668 8.01705 43.6009C8.01705 43.1274 7.91477 42.705 7.71023 42.3338C7.50568 41.9626 7.22349 41.6709 6.86364 41.4588C6.50758 41.2467 6.09848 41.1387 5.63636 41.1349C5.28409 41.1349 4.92992 41.1955 4.57386 41.3168C4.2178 41.438 3.92992 41.5971 3.71023 41.794L2.10227 41.5554L2.75568 35.6918H9.15341V37.1974H4.21591L3.84659 40.4531H3.91477C4.14205 40.2334 4.44318 40.0497 4.81818 39.902C5.19697 39.7543 5.60227 39.6804 6.03409 39.6804C6.74242 39.6804 7.37311 39.849 7.92614 40.1861C8.48295 40.5232 8.92045 40.9834 9.23864 41.5668C9.56061 42.1463 9.7197 42.813 9.71591 43.5668C9.7197 44.3205 9.54924 44.9929 9.20455 45.5838C8.86364 46.1747 8.39015 46.6406 7.78409 46.9815C7.18182 47.3187 6.49053 47.4872 5.71023 47.4872ZM12.5114 47.4361C12.2008 47.4361 11.9337 47.3262 11.7102 47.1065C11.4867 46.883 11.375 46.6141 11.375 46.2997C11.375 45.9891 11.4867 45.724 11.7102 45.5043C11.9337 45.2808 12.2008 45.169 12.5114 45.169C12.822 45.169 13.089 45.2808 13.3125 45.5043C13.536 45.724 13.6477 45.9891 13.6477 46.2997C13.6477 46.508 13.5947 46.6993 13.4886 46.8736C13.3864 47.044 13.25 47.1804 13.0795 47.2827C12.9091 47.3849 12.7197 47.4361 12.5114 47.4361ZM19.5298 47.5213C18.6321 47.5175 17.8651 47.2808 17.2287 46.8111C16.5923 46.3414 16.1056 45.6577 15.7685 44.7599C15.4313 43.8622 15.2628 42.7808 15.2628 41.5156C15.2628 40.2543 15.4313 39.1766 15.7685 38.2827C16.1094 37.3887 16.598 36.7069 17.2344 36.2372C17.8745 35.7675 18.6397 35.5327 19.5298 35.5327C20.42 35.5327 21.1832 35.7694 21.8196 36.2429C22.456 36.7126 22.9427 37.3944 23.2798 38.2884C23.6207 39.1785 23.7912 40.2543 23.7912 41.5156C23.7912 42.7846 23.6226 43.8679 23.2855 44.7656C22.9484 45.6596 22.4616 46.3433 21.8253 46.8168C21.1889 47.2865 20.4238 47.5213 19.5298 47.5213ZM19.5298 46.0043C20.3177 46.0043 20.9332 45.6198 21.3764 44.8509C21.8234 44.0819 22.0469 42.9702 22.0469 41.5156C22.0469 40.5497 21.9446 39.7334 21.7401 39.0668C21.5393 38.3963 21.2495 37.8887 20.8707 37.544C20.4957 37.1955 20.0488 37.0213 19.5298 37.0213C18.7457 37.0213 18.1302 37.4077 17.6832 38.1804C17.2363 38.9531 17.0109 40.0649 17.0071 41.5156C17.0071 42.4853 17.1075 43.3054 17.3082 43.9759C17.5128 44.6425 17.8026 45.1482 18.1776 45.4929C18.5526 45.8338 19.0033 46.0043 19.5298 46.0043ZM36.5469 38.7486C36.4863 38.2107 36.2363 37.794 35.7969 37.4986C35.3575 37.1993 34.8045 37.0497 34.1378 37.0497C33.6605 37.0497 33.2476 37.1255 32.8991 37.277C32.5507 37.4247 32.2798 37.6293 32.0866 37.8906C31.8973 38.1482 31.8026 38.4418 31.8026 38.7713C31.8026 39.0478 31.867 39.2865 31.9957 39.4872C32.1283 39.688 32.3007 39.8565 32.5128 39.9929C32.7287 40.1255 32.9598 40.2372 33.206 40.3281C33.4522 40.4152 33.6889 40.4872 33.9162 40.544L35.0526 40.8395C35.4238 40.9304 35.8045 41.0535 36.1946 41.2088C36.5848 41.3641 36.9465 41.5687 37.2798 41.8224C37.6132 42.0762 37.8821 42.3906 38.0866 42.7656C38.295 43.1406 38.3991 43.5895 38.3991 44.1122C38.3991 44.7713 38.2287 45.3565 37.8878 45.8679C37.5507 46.3793 37.0601 46.7827 36.4162 47.0781C35.776 47.3736 35.0014 47.5213 34.0923 47.5213C33.2211 47.5213 32.4673 47.383 31.831 47.1065C31.1946 46.83 30.6965 46.438 30.3366 45.9304C29.9768 45.419 29.7779 44.813 29.7401 44.1122H31.5014C31.5355 44.5327 31.6719 44.883 31.9105 45.1634C32.1529 45.4399 32.4616 45.6463 32.8366 45.7827C33.2154 45.9152 33.6302 45.9815 34.081 45.9815C34.5772 45.9815 35.0185 45.9039 35.4048 45.7486C35.795 45.5895 36.1018 45.3698 36.3253 45.0895C36.5488 44.8054 36.6605 44.474 36.6605 44.0952C36.6605 43.7505 36.562 43.4683 36.3651 43.2486C36.1719 43.0289 35.9086 42.8471 35.5753 42.7031C35.2457 42.5592 34.8726 42.4323 34.456 42.3224L33.081 41.9474C32.1491 41.6937 31.4105 41.3205 30.8651 40.8281C30.3234 40.3357 30.0526 39.6842 30.0526 38.8736C30.0526 38.2031 30.2344 37.6179 30.598 37.1179C30.9616 36.6179 31.4541 36.2296 32.0753 35.9531C32.6965 35.6728 33.3973 35.5327 34.1776 35.5327C34.9654 35.5327 35.6605 35.6709 36.2628 35.9474C36.8688 36.224 37.3461 36.6046 37.6946 37.0895C38.0431 37.5705 38.2249 38.1236 38.2401 38.7486H36.5469ZM42.0597 42.1463V47.3281H40.3608V35.6918H42.0369V40.0213H42.1449C42.3494 39.5516 42.6619 39.1785 43.0824 38.902C43.5028 38.6255 44.0521 38.4872 44.7301 38.4872C45.3286 38.4872 45.8513 38.6103 46.2983 38.8565C46.7491 39.1027 47.0975 39.4702 47.3438 39.9588C47.5938 40.4437 47.7188 41.0497 47.7188 41.777V47.3281H46.0199V41.9815C46.0199 41.3414 45.8551 40.8452 45.5256 40.4929C45.196 40.1368 44.7377 39.9588 44.1506 39.9588C43.7491 39.9588 43.3892 40.044 43.071 40.2145C42.7566 40.3849 42.5085 40.6349 42.3267 40.9645C42.1487 41.2902 42.0597 41.6842 42.0597 42.1463ZM53.6619 47.5043C52.8438 47.5043 52.1297 47.3168 51.5199 46.9418C50.91 46.5668 50.4366 46.0421 50.0994 45.3679C49.7623 44.6937 49.5938 43.9058 49.5938 43.0043C49.5938 42.099 49.7623 41.3073 50.0994 40.6293C50.4366 39.9512 50.91 39.4247 51.5199 39.0497C52.1297 38.6747 52.8438 38.4872 53.6619 38.4872C54.4801 38.4872 55.1941 38.6747 55.804 39.0497C56.4138 39.4247 56.8873 39.9512 57.2244 40.6293C57.5616 41.3073 57.7301 42.099 57.7301 43.0043C57.7301 43.9058 57.5616 44.6937 57.2244 45.3679C56.8873 46.0421 56.4138 46.5668 55.804 46.9418C55.1941 47.3168 54.4801 47.5043 53.6619 47.5043ZM53.6676 46.0781C54.1979 46.0781 54.6373 45.938 54.9858 45.6577C55.3343 45.3774 55.5919 45.0043 55.7585 44.5384C55.929 44.0724 56.0142 43.5592 56.0142 42.9986C56.0142 42.4418 55.929 41.9304 55.7585 41.4645C55.5919 40.9948 55.3343 40.6179 54.9858 40.3338C54.6373 40.0497 54.1979 39.9077 53.6676 39.9077C53.1335 39.9077 52.6903 40.0497 52.3381 40.3338C51.9896 40.6179 51.7301 40.9948 51.5597 41.4645C51.393 41.9304 51.3097 42.4418 51.3097 42.9986C51.3097 43.5592 51.393 44.0724 51.5597 44.5384C51.7301 45.0043 51.9896 45.3774 52.3381 45.6577C52.6903 45.938 53.1335 46.0781 53.6676 46.0781ZM59.6264 50.6009V38.6009H61.2855V40.0156H61.4276C61.526 39.8338 61.6681 39.6236 61.8537 39.3849C62.0393 39.1463 62.2969 38.938 62.6264 38.7599C62.956 38.5781 63.3916 38.4872 63.9332 38.4872C64.6378 38.4872 65.2666 38.6652 65.8196 39.0213C66.3726 39.3774 66.8063 39.8906 67.1207 40.5611C67.4389 41.2315 67.598 42.0384 67.598 42.9815C67.598 43.9247 67.4408 44.7334 67.1264 45.4077C66.812 46.0781 66.3802 46.5952 65.831 46.9588C65.2817 47.3187 64.6548 47.4986 63.9503 47.4986C63.42 47.4986 62.9863 47.4096 62.6491 47.2315C62.3158 47.0535 62.0545 46.8452 61.8651 46.6065C61.6757 46.3679 61.5298 46.1558 61.4276 45.9702H61.3253V50.6009H59.6264ZM61.2912 42.9645C61.2912 43.5781 61.3802 44.116 61.5582 44.5781C61.7363 45.0402 61.9938 45.402 62.331 45.6634C62.6681 45.9209 63.081 46.0497 63.5696 46.0497C64.0772 46.0497 64.5014 45.9152 64.8423 45.6463C65.1832 45.3736 65.4408 45.0043 65.6151 44.5384C65.7931 44.0724 65.8821 43.5478 65.8821 42.9645C65.8821 42.3887 65.795 41.8717 65.6207 41.4134C65.4503 40.955 65.1927 40.5933 64.848 40.3281C64.5071 40.063 64.081 39.9304 63.5696 39.9304C63.0772 39.9304 62.6605 40.0573 62.3196 40.3111C61.9825 40.5649 61.7268 40.919 61.5526 41.3736C61.3783 41.8281 61.2912 42.3584 61.2912 42.9645ZM69.5014 47.3281V38.6009H71.2003V47.3281H69.5014ZM70.3594 37.2543C70.0639 37.2543 69.8101 37.1558 69.598 36.9588C69.3897 36.758 69.2855 36.5194 69.2855 36.2429C69.2855 35.9626 69.3897 35.724 69.598 35.527C69.8101 35.3262 70.0639 35.2259 70.3594 35.2259C70.6548 35.2259 70.9067 35.3262 71.1151 35.527C71.3272 35.724 71.4332 35.9626 71.4332 36.2429C71.4332 36.5194 71.3272 36.758 71.1151 36.9588C70.9067 37.1558 70.6548 37.2543 70.3594 37.2543ZM77.6392 38.6009V39.9645H72.7074V38.6009H77.6392ZM74.0597 47.3281V37.5895C74.0597 37.044 74.179 36.5914 74.4176 36.2315C74.6563 35.8679 74.9725 35.5971 75.3665 35.419C75.7604 35.2372 76.1884 35.1463 76.6506 35.1463C76.9915 35.1463 77.2831 35.1747 77.5256 35.2315C77.768 35.2846 77.9479 35.3338 78.0653 35.3793L77.6676 36.7543C77.5881 36.7315 77.4858 36.705 77.3608 36.6747C77.2358 36.6406 77.0843 36.6236 76.9062 36.6236C76.4934 36.6236 76.1979 36.7259 76.0199 36.9304C75.8456 37.1349 75.7585 37.4304 75.7585 37.8168V47.3281H74.0597ZM80.4659 50.6009C80.2121 50.6009 79.9811 50.58 79.7727 50.5384C79.5644 50.5005 79.4091 50.4588 79.3068 50.4134L79.7159 49.0213C80.0265 49.1046 80.303 49.1406 80.5455 49.1293C80.7879 49.1179 81.0019 49.027 81.1875 48.8565C81.3769 48.6861 81.5436 48.4077 81.6875 48.0213L81.8977 47.4418L78.7045 38.6009H80.5227L82.733 45.3736H82.8239L85.0341 38.6009H86.858L83.2614 48.4929C83.0947 48.9474 82.8826 49.3319 82.625 49.6463C82.3674 49.9645 82.0606 50.2031 81.7045 50.3622C81.3485 50.5213 80.9356 50.6009 80.4659 50.6009ZM92.8253 47.3281V35.6918H96.973C97.8745 35.6918 98.6226 35.8471 99.2173 36.1577C99.8158 36.4683 100.263 36.8982 100.558 37.4474C100.854 37.9929 101.001 38.6236 101.001 39.3395C101.001 40.0516 100.852 40.6785 100.553 41.2202C100.257 41.758 99.8101 42.1766 99.2116 42.4759C98.617 42.7751 97.8688 42.9247 96.9673 42.9247H93.8253V41.4134H96.8082C97.3764 41.4134 97.8385 41.3319 98.1946 41.169C98.5545 41.0062 98.8177 40.7694 98.9844 40.4588C99.151 40.1482 99.2344 39.7751 99.2344 39.3395C99.2344 38.9001 99.1491 38.5194 98.9787 38.1974C98.812 37.8755 98.5488 37.6293 98.1889 37.4588C97.8329 37.2846 97.3651 37.1974 96.7855 37.1974H94.581V47.3281H92.8253ZM98.5696 42.0781L101.445 47.3281H99.4446L96.6264 42.0781H98.5696ZM105.541 47.5213C104.988 47.5213 104.488 47.419 104.041 47.2145C103.594 47.0062 103.24 46.705 102.979 46.3111C102.721 45.9171 102.592 45.4342 102.592 44.8622C102.592 44.3698 102.687 43.9645 102.876 43.6463C103.066 43.3281 103.321 43.0762 103.643 42.8906C103.965 42.705 104.325 42.5649 104.723 42.4702C105.121 42.3755 105.526 42.3035 105.939 42.2543C106.462 42.1937 106.886 42.1444 107.212 42.1065C107.537 42.0649 107.774 41.9986 107.922 41.9077C108.07 41.8168 108.143 41.669 108.143 41.4645V41.4247C108.143 40.9285 108.003 40.544 107.723 40.2713C107.446 39.9986 107.034 39.8622 106.484 39.8622C105.912 39.8622 105.462 39.9891 105.132 40.2429C104.806 40.4929 104.581 40.7713 104.456 41.0781L102.859 40.7145C103.049 40.1842 103.325 39.7562 103.689 39.4304C104.056 39.1009 104.479 38.8622 104.956 38.7145C105.433 38.563 105.935 38.4872 106.462 38.4872C106.81 38.4872 107.179 38.5289 107.57 38.6122C107.964 38.6918 108.331 38.8395 108.672 39.0554C109.017 39.2713 109.299 39.58 109.518 39.9815C109.738 40.3793 109.848 40.8963 109.848 41.5327V47.3281H108.189V46.1349H108.121C108.011 46.3546 107.846 46.5705 107.626 46.7827C107.407 46.9948 107.125 47.1709 106.78 47.3111C106.435 47.4512 106.022 47.5213 105.541 47.5213ZM105.911 46.1577C106.38 46.1577 106.782 46.0649 107.115 45.8793C107.452 45.6937 107.708 45.4512 107.882 45.152C108.06 44.849 108.149 44.5251 108.149 44.1804V43.0554C108.089 43.116 107.971 43.1728 107.797 43.2259C107.626 43.2751 107.431 43.3187 107.212 43.3565C106.992 43.3906 106.778 43.4228 106.57 43.4531C106.361 43.4796 106.187 43.5024 106.047 43.5213C105.717 43.563 105.416 43.633 105.143 43.7315C104.875 43.83 104.659 43.9721 104.496 44.1577C104.337 44.3395 104.257 44.5819 104.257 44.8849C104.257 45.3054 104.412 45.6236 104.723 45.8395C105.034 46.0516 105.429 46.1577 105.911 46.1577ZM116.185 38.6009V39.9645H111.418V38.6009H116.185ZM112.696 36.5099H114.395V44.7656C114.395 45.0952 114.444 45.3433 114.543 45.5099C114.641 45.6728 114.768 45.7846 114.923 45.8452C115.082 45.902 115.255 45.9304 115.44 45.9304C115.577 45.9304 115.696 45.9209 115.798 45.902C115.901 45.883 115.98 45.8679 116.037 45.8565L116.344 47.2599C116.245 47.2978 116.105 47.3357 115.923 47.3736C115.741 47.4152 115.514 47.438 115.241 47.4418C114.795 47.4493 114.378 47.3698 113.991 47.2031C113.605 47.0365 113.293 46.7789 113.054 46.4304C112.815 46.0819 112.696 45.6444 112.696 45.1179V36.5099ZM118.064 47.3281V38.6009H119.763V47.3281H118.064ZM118.922 37.2543C118.626 37.2543 118.373 37.1558 118.161 36.9588C117.952 36.758 117.848 36.5194 117.848 36.2429C117.848 35.9626 117.952 35.724 118.161 35.527C118.373 35.3262 118.626 35.2259 118.922 35.2259C119.217 35.2259 119.469 35.3262 119.678 35.527C119.89 35.724 119.996 35.9626 119.996 36.2429C119.996 36.5194 119.89 36.758 119.678 36.9588C119.469 37.1558 119.217 37.2543 118.922 37.2543ZM123.747 42.1463V47.3281H122.048V38.6009H123.679V40.0213H123.787C123.988 39.5592 124.302 39.188 124.73 38.9077C125.162 38.6274 125.705 38.4872 126.361 38.4872C126.955 38.4872 127.476 38.6122 127.923 38.8622C128.37 39.1084 128.717 39.4759 128.963 39.9645C129.209 40.4531 129.332 41.0573 129.332 41.777V47.3281H127.634V41.9815C127.634 41.349 127.469 40.8546 127.139 40.4986C126.81 40.1387 126.357 39.9588 125.781 39.9588C125.387 39.9588 125.037 40.044 124.73 40.2145C124.427 40.3849 124.187 40.6349 124.009 40.9645C123.834 41.2902 123.747 41.6842 123.747 42.1463ZM135.27 50.7827C134.577 50.7827 133.98 50.6918 133.48 50.5099C132.984 50.3281 132.579 50.0876 132.264 49.7884C131.95 49.4891 131.715 49.1615 131.56 48.8054L133.02 48.2031C133.122 48.3698 133.259 48.5459 133.429 48.7315C133.603 48.9209 133.838 49.0819 134.134 49.2145C134.433 49.3471 134.817 49.4134 135.287 49.4134C135.931 49.4134 136.463 49.2562 136.884 48.9418C137.304 48.6312 137.514 48.1349 137.514 47.4531V45.7372H137.406C137.304 45.9228 137.156 46.1293 136.963 46.3565C136.774 46.5838 136.512 46.7808 136.179 46.9474C135.846 47.1141 135.412 47.1974 134.878 47.1974C134.188 47.1974 133.567 47.0365 133.014 46.7145C132.465 46.3887 132.029 45.9096 131.707 45.277C131.389 44.6406 131.23 43.8584 131.23 42.9304C131.23 42.0024 131.387 41.2069 131.702 40.544C132.02 39.8812 132.455 39.3736 133.009 39.0213C133.562 38.6652 134.188 38.4872 134.889 38.4872C135.431 38.4872 135.868 38.5781 136.202 38.7599C136.535 38.938 136.795 39.1463 136.98 39.3849C137.17 39.6236 137.315 39.8338 137.418 40.0156H137.543V38.6009H139.207V47.5213C139.207 48.2713 139.033 48.8868 138.685 49.3679C138.336 49.849 137.865 50.205 137.27 50.4361C136.679 50.6671 136.012 50.7827 135.27 50.7827ZM135.253 45.7884C135.741 45.7884 136.154 45.6747 136.491 45.4474C136.832 45.2164 137.09 44.8868 137.264 44.4588C137.442 44.027 137.531 43.5099 137.531 42.9077C137.531 42.3205 137.444 41.8035 137.27 41.3565C137.096 40.9096 136.84 40.5611 136.503 40.3111C136.166 40.0573 135.749 39.9304 135.253 39.9304C134.741 39.9304 134.315 40.063 133.974 40.3281C133.634 40.5895 133.376 40.9455 133.202 41.3963C133.031 41.8471 132.946 42.3509 132.946 42.9077C132.946 43.4796 133.033 43.9815 133.207 44.4134C133.382 44.8452 133.639 45.1823 133.98 45.4247C134.325 45.6671 134.749 45.7884 135.253 45.7884Z" fill="white"/>
</svg>
