<svg width="144" height="54" viewBox="0 0 144 54" fill="none" xmlns="http://www.w3.org/2000/svg">
<path d="M12.0469 4.42188L15.1369 10.3462L22.0469 11.302L17.0469 15.9109L18.2269 22.4219L12.0469 19.3462L5.86688 22.4219L7.04688 15.9109L2.04688 11.302L8.95687 10.3462L12.0469 4.42188Z" fill="#FDC639"/>
<path d="M40.0469 4.42188L43.1369 10.3462L50.0469 11.302L45.0469 15.9109L46.2269 22.4219L40.0469 19.3462L33.8669 22.4219L35.0469 15.9109L30.0469 11.302L36.9569 10.3462L40.0469 4.42188Z" fill="#FDC639"/>
<path d="M68.0469 4.42188L71.1369 10.3462L78.0469 11.302L73.0469 15.9109L74.2269 22.4219L68.0469 19.3462L61.8669 22.4219L63.0469 15.9109L58.0469 11.302L64.9569 10.3462L68.0469 4.42188Z" fill="#FDC639"/>
<path d="M96.0469 4.42188L99.1369 10.3462L106.047 11.302L101.047 15.9109L102.227 22.4219L96.0469 19.3462L89.8669 22.4219L91.0469 15.9109L86.0469 11.302L92.9569 10.3462L96.0469 4.42188Z" fill="#FDC639"/>
<path d="M124.047 4.42188L127.137 10.3462L134.047 11.302L129.047 15.9109L130.227 22.4219L124.047 19.3462L117.867 22.4219L119.047 15.9109L114.047 11.302L120.957 10.3462L124.047 4.42188Z" fill="#FDC639"/>
<path d="M9.0071 47.581C8.29498 47.581 7.65483 47.4446 7.08665 47.1719C6.52225 46.8954 6.0715 46.5166 5.73438 46.0355C5.39725 45.5545 5.21733 45.0052 5.1946 44.3878H6.89915C6.94081 44.8878 7.16241 45.2988 7.56392 45.6207C7.96544 45.9427 8.4465 46.1037 9.0071 46.1037C9.45407 46.1037 9.84991 46.0014 10.1946 45.7969C10.5431 45.5885 10.8158 45.3026 11.0128 44.9389C11.2135 44.5753 11.3139 44.1605 11.3139 43.6946C11.3139 43.2211 11.2116 42.7988 11.0071 42.4276C10.8026 42.0563 10.5204 41.7647 10.1605 41.5526C9.80445 41.3404 9.39536 41.2325 8.93324 41.2287C8.58097 41.2287 8.2268 41.2893 7.87074 41.4105C7.51468 41.5317 7.2268 41.6908 7.0071 41.8878L5.39915 41.6491L6.05256 35.7855H12.4503V37.2912H7.51278L7.14347 40.5469H7.21165C7.43892 40.3272 7.74006 40.1435 8.11506 39.9957C8.49384 39.848 8.89915 39.7741 9.33097 39.7741C10.0393 39.7741 10.67 39.9427 11.223 40.2798C11.7798 40.617 12.2173 41.0772 12.5355 41.6605C12.8575 42.2401 13.0166 42.9067 13.0128 43.6605C13.0166 44.4143 12.8461 45.0866 12.5014 45.6776C12.1605 46.2685 11.687 46.7344 11.081 47.0753C10.4787 47.4124 9.78741 47.581 9.0071 47.581ZM15.8082 47.5298C15.4976 47.5298 15.2306 47.42 15.0071 47.2003C14.7836 46.9768 14.6719 46.7079 14.6719 46.3935C14.6719 46.0829 14.7836 45.8177 15.0071 45.598C15.2306 45.3745 15.4976 45.2628 15.8082 45.2628C16.1188 45.2628 16.3859 45.3745 16.6094 45.598C16.8329 45.8177 16.9446 46.0829 16.9446 46.3935C16.9446 46.6018 16.8916 46.7931 16.7855 46.9673C16.6832 47.1378 16.5469 47.2741 16.3764 47.3764C16.206 47.4787 16.0166 47.5298 15.8082 47.5298ZM22.8267 47.6151C21.929 47.6113 21.1619 47.3745 20.5256 46.9048C19.8892 46.4351 19.4025 45.7514 19.0653 44.8537C18.7282 43.956 18.5597 42.8745 18.5597 41.6094C18.5597 40.348 18.7282 39.2704 19.0653 38.3764C19.4063 37.4825 19.8949 36.8007 20.5312 36.331C21.1714 35.8613 21.9366 35.6264 22.8267 35.6264C23.7169 35.6264 24.4801 35.8632 25.1165 36.3366C25.7528 36.8063 26.2396 37.4882 26.5767 38.3821C26.9176 39.2723 27.0881 40.348 27.0881 41.6094C27.0881 42.8783 26.9195 43.9616 26.5824 44.8594C26.2453 45.7533 25.7585 46.437 25.1222 46.9105C24.4858 47.3802 23.7206 47.6151 22.8267 47.6151ZM22.8267 46.098C23.6146 46.098 24.2301 45.7135 24.6733 44.9446C25.1203 44.1757 25.3438 43.0639 25.3438 41.6094C25.3438 40.6435 25.2415 39.8272 25.0369 39.1605C24.8362 38.4901 24.5464 37.9825 24.1676 37.6378C23.7926 37.2893 23.3456 37.1151 22.8267 37.1151C22.0426 37.1151 21.4271 37.5014 20.9801 38.2741C20.5331 39.0469 20.3078 40.1586 20.304 41.6094C20.304 42.5791 20.4044 43.3991 20.6051 44.0696C20.8097 44.7363 21.0994 45.242 21.4744 45.5866C21.8494 45.9276 22.3002 46.098 22.8267 46.098ZM39.8438 38.8423C39.7831 38.3045 39.5331 37.8878 39.0938 37.5923C38.6544 37.2931 38.1013 37.1435 37.4347 37.1435C36.9574 37.1435 36.5445 37.2192 36.196 37.3707C35.8475 37.5185 35.5767 37.723 35.3835 37.9844C35.1941 38.242 35.0994 38.5355 35.0994 38.8651C35.0994 39.1416 35.1638 39.3802 35.2926 39.581C35.4252 39.7817 35.5975 39.9503 35.8097 40.0866C36.0256 40.2192 36.2566 40.331 36.5028 40.4219C36.7491 40.509 36.9858 40.581 37.2131 40.6378L38.3494 40.9332C38.7206 41.0241 39.1013 41.1473 39.4915 41.3026C39.8816 41.4579 40.2434 41.6624 40.5767 41.9162C40.91 42.17 41.179 42.4844 41.3835 42.8594C41.5919 43.2344 41.696 43.6832 41.696 44.206C41.696 44.8651 41.5256 45.4503 41.1847 45.9616C40.8475 46.473 40.357 46.8764 39.7131 47.1719C39.0729 47.4673 38.2983 47.6151 37.3892 47.6151C36.518 47.6151 35.7642 47.4768 35.1278 47.2003C34.4915 46.9238 33.9934 46.5317 33.6335 46.0241C33.2737 45.5128 33.0748 44.9067 33.0369 44.206H34.7983C34.8324 44.6264 34.9688 44.9768 35.2074 45.2571C35.4498 45.5336 35.7585 45.7401 36.1335 45.8764C36.5123 46.009 36.9271 46.0753 37.3778 46.0753C37.8741 46.0753 38.3153 45.9976 38.7017 45.8423C39.0919 45.6832 39.3987 45.4635 39.6222 45.1832C39.8456 44.8991 39.9574 44.5677 39.9574 44.1889C39.9574 43.8442 39.8589 43.562 39.6619 43.3423C39.4688 43.1226 39.2055 42.9408 38.8722 42.7969C38.5426 42.6529 38.1695 42.526 37.7528 42.4162L36.3778 42.0412C35.446 41.7874 34.7074 41.4143 34.1619 40.9219C33.6203 40.4295 33.3494 39.7779 33.3494 38.9673C33.3494 38.2969 33.5313 37.7116 33.8949 37.2116C34.2585 36.7116 34.7509 36.3234 35.3722 36.0469C35.9934 35.7666 36.6941 35.6264 37.4744 35.6264C38.2623 35.6264 38.9574 35.7647 39.5597 36.0412C40.1657 36.3177 40.643 36.6984 40.9915 37.1832C41.34 37.6643 41.5218 38.2173 41.5369 38.8423H39.8438ZM45.3565 42.2401V47.4219H43.6577V35.7855H45.3338V40.1151H45.4418C45.6463 39.6454 45.9588 39.2723 46.3793 38.9957C46.7997 38.7192 47.349 38.581 48.027 38.581C48.6255 38.581 49.1482 38.7041 49.5952 38.9503C50.0459 39.1965 50.3944 39.5639 50.6406 40.0526C50.8906 40.5374 51.0156 41.1435 51.0156 41.8707V47.4219H49.3168V42.0753C49.3168 41.4351 49.152 40.9389 48.8224 40.5866C48.4929 40.2306 48.0346 40.0526 47.4474 40.0526C47.0459 40.0526 46.6861 40.1378 46.3679 40.3082C46.0535 40.4787 45.8054 40.7287 45.6236 41.0582C45.4455 41.384 45.3565 41.7779 45.3565 42.2401ZM56.9588 47.598C56.1406 47.598 55.4266 47.4105 54.8168 47.0355C54.2069 46.6605 53.7334 46.1359 53.3963 45.4616C53.0592 44.7874 52.8906 43.9995 52.8906 43.098C52.8906 42.1927 53.0592 41.401 53.3963 40.723C53.7334 40.045 54.2069 39.5185 54.8168 39.1435C55.4266 38.7685 56.1406 38.581 56.9588 38.581C57.777 38.581 58.491 38.7685 59.1009 39.1435C59.7107 39.5185 60.1842 40.045 60.5213 40.723C60.8584 41.401 61.027 42.1927 61.027 43.098C61.027 43.9995 60.8584 44.7874 60.5213 45.4616C60.1842 46.1359 59.7107 46.6605 59.1009 47.0355C58.491 47.4105 57.777 47.598 56.9588 47.598ZM56.9645 46.1719C57.4948 46.1719 57.9342 46.0317 58.2827 45.7514C58.6312 45.4711 58.8887 45.098 59.0554 44.6321C59.2259 44.1662 59.3111 43.6529 59.3111 43.0923C59.3111 42.5355 59.2259 42.0241 59.0554 41.5582C58.8887 41.0885 58.6312 40.7116 58.2827 40.4276C57.9342 40.1435 57.4948 40.0014 56.9645 40.0014C56.4304 40.0014 55.9872 40.1435 55.6349 40.4276C55.2865 40.7116 55.027 41.0885 54.8565 41.5582C54.6899 42.0241 54.6065 42.5355 54.6065 43.0923C54.6065 43.6529 54.6899 44.1662 54.8565 44.6321C55.027 45.098 55.2865 45.4711 55.6349 45.7514C55.9872 46.0317 56.4304 46.1719 56.9645 46.1719ZM62.9233 50.6946V38.6946H64.5824V40.1094H64.7244C64.8229 39.9276 64.965 39.7173 65.1506 39.4787C65.3362 39.2401 65.5938 39.0317 65.9233 38.8537C66.2528 38.6719 66.6884 38.581 67.2301 38.581C67.9347 38.581 68.5634 38.759 69.1165 39.1151C69.6695 39.4711 70.1032 39.9844 70.4176 40.6548C70.7358 41.3253 70.8949 42.1321 70.8949 43.0753C70.8949 44.0185 70.7377 44.8272 70.4233 45.5014C70.1089 46.1719 69.6771 46.6889 69.1278 47.0526C68.5786 47.4124 67.9517 47.5923 67.2472 47.5923C66.7169 47.5923 66.2831 47.5033 65.946 47.3253C65.6127 47.1473 65.3513 46.9389 65.1619 46.7003C64.9725 46.4616 64.8267 46.2495 64.7244 46.0639H64.6222V50.6946H62.9233ZM64.5881 43.0582C64.5881 43.6719 64.6771 44.2098 64.8551 44.6719C65.0331 45.134 65.2907 45.4957 65.6278 45.7571C65.965 46.0147 66.3778 46.1435 66.8665 46.1435C67.3741 46.1435 67.7983 46.009 68.1392 45.7401C68.4801 45.4673 68.7377 45.098 68.9119 44.6321C69.09 44.1662 69.179 43.6416 69.179 43.0582C69.179 42.4825 69.0919 41.9654 68.9176 41.5071C68.7472 41.0488 68.4896 40.687 68.1449 40.4219C67.804 40.1567 67.3778 40.0241 66.8665 40.0241C66.3741 40.0241 65.9574 40.151 65.6165 40.4048C65.2794 40.6586 65.0237 41.0128 64.8494 41.4673C64.6752 41.9219 64.5881 42.4522 64.5881 43.0582ZM72.7983 47.4219V38.6946H74.4972V47.4219H72.7983ZM73.6562 37.348C73.3608 37.348 73.107 37.2495 72.8949 37.0526C72.6866 36.8518 72.5824 36.6132 72.5824 36.3366C72.5824 36.0563 72.6866 35.8177 72.8949 35.6207C73.107 35.42 73.3608 35.3196 73.6562 35.3196C73.9517 35.3196 74.2036 35.42 74.4119 35.6207C74.6241 35.8177 74.7301 36.0563 74.7301 36.3366C74.7301 36.6132 74.6241 36.8518 74.4119 37.0526C74.2036 37.2495 73.9517 37.348 73.6562 37.348ZM80.9361 38.6946V40.0582H76.0043V38.6946H80.9361ZM77.3565 47.4219V37.6832C77.3565 37.1378 77.4759 36.6851 77.7145 36.3253C77.9531 35.9616 78.2694 35.6908 78.6634 35.5128C79.0573 35.331 79.4853 35.2401 79.9474 35.2401C80.2884 35.2401 80.58 35.2685 80.8224 35.3253C81.0649 35.3783 81.2448 35.4276 81.3622 35.473L80.9645 36.848C80.8849 36.8253 80.7827 36.7988 80.6577 36.7685C80.5327 36.7344 80.3812 36.7173 80.2031 36.7173C79.7902 36.7173 79.4948 36.8196 79.3168 37.0241C79.1425 37.2287 79.0554 37.5241 79.0554 37.9105V47.4219H77.3565ZM83.7628 50.6946C83.509 50.6946 83.2779 50.6738 83.0696 50.6321C82.8613 50.5942 82.706 50.5526 82.6037 50.5071L83.0128 49.1151C83.3234 49.1984 83.5999 49.2344 83.8423 49.223C84.0848 49.2116 84.2988 49.1207 84.4844 48.9503C84.6738 48.7798 84.8404 48.5014 84.9844 48.1151L85.1946 47.5355L82.0014 38.6946H83.8196L86.0298 45.4673H86.1207L88.331 38.6946H90.1548L86.5582 48.5866C86.3916 49.0412 86.1795 49.4257 85.9219 49.7401C85.6643 50.0582 85.3575 50.2969 85.0014 50.456C84.6454 50.6151 84.2325 50.6946 83.7628 50.6946ZM96.1222 47.4219V35.7855H100.27C101.171 35.7855 101.92 35.9408 102.514 36.2514C103.113 36.562 103.56 36.992 103.855 37.5412C104.151 38.0866 104.298 38.7173 104.298 39.4332C104.298 40.1454 104.149 40.7723 103.849 41.3139C103.554 41.8518 103.107 42.2704 102.509 42.5696C101.914 42.8688 101.166 43.0185 100.264 43.0185H97.1222V41.5071H100.105C100.673 41.5071 101.135 41.4257 101.491 41.2628C101.851 41.0999 102.115 40.8632 102.281 40.5526C102.448 40.242 102.531 39.8688 102.531 39.4332C102.531 38.9938 102.446 38.6132 102.276 38.2912C102.109 37.9692 101.846 37.723 101.486 37.5526C101.13 37.3783 100.662 37.2912 100.082 37.2912H97.8778V47.4219H96.1222ZM101.866 42.1719L104.741 47.4219H102.741L99.9233 42.1719H101.866ZM108.838 47.6151C108.285 47.6151 107.785 47.5128 107.338 47.3082C106.891 47.0999 106.537 46.7988 106.276 46.4048C106.018 46.0109 105.889 45.5279 105.889 44.956C105.889 44.4635 105.984 44.0582 106.173 43.7401C106.363 43.4219 106.618 43.17 106.94 42.9844C107.262 42.7988 107.622 42.6586 108.02 42.5639C108.418 42.4692 108.823 42.3973 109.236 42.348C109.759 42.2874 110.183 42.2382 110.509 42.2003C110.834 42.1586 111.071 42.0923 111.219 42.0014C111.366 41.9105 111.44 41.7628 111.44 41.5582V41.5185C111.44 41.0223 111.3 40.6378 111.02 40.3651C110.743 40.0923 110.33 39.956 109.781 39.956C109.209 39.956 108.759 40.0829 108.429 40.3366C108.103 40.5866 107.878 40.8651 107.753 41.1719L106.156 40.8082C106.346 40.2779 106.622 39.8499 106.986 39.5241C107.353 39.1946 107.776 38.956 108.253 38.8082C108.73 38.6567 109.232 38.581 109.759 38.581C110.107 38.581 110.476 38.6226 110.866 38.706C111.26 38.7855 111.628 38.9332 111.969 39.1491C112.313 39.3651 112.596 39.6738 112.815 40.0753C113.035 40.473 113.145 40.9901 113.145 41.6264V47.4219H111.486V46.2287H111.418C111.308 46.4484 111.143 46.6643 110.923 46.8764C110.704 47.0885 110.421 47.2647 110.077 47.4048C109.732 47.545 109.319 47.6151 108.838 47.6151ZM109.207 46.2514C109.677 46.2514 110.079 46.1586 110.412 45.973C110.749 45.7874 111.005 45.545 111.179 45.2457C111.357 44.9427 111.446 44.6188 111.446 44.2741V43.1491C111.385 43.2098 111.268 43.2666 111.094 43.3196C110.923 43.3688 110.728 43.4124 110.509 43.4503C110.289 43.4844 110.075 43.5166 109.866 43.5469C109.658 43.5734 109.484 43.5961 109.344 43.6151C109.014 43.6567 108.713 43.7268 108.44 43.8253C108.171 43.9238 107.955 44.0658 107.793 44.2514C107.634 44.4332 107.554 44.6757 107.554 44.9787C107.554 45.3991 107.709 45.7173 108.02 45.9332C108.33 46.1454 108.726 46.2514 109.207 46.2514ZM119.482 38.6946V40.0582H114.714V38.6946H119.482ZM115.993 36.6037H117.692V44.8594C117.692 45.1889 117.741 45.437 117.839 45.6037C117.938 45.7666 118.065 45.8783 118.22 45.9389C118.379 45.9957 118.552 46.0241 118.737 46.0241C118.874 46.0241 118.993 46.0147 119.095 45.9957C119.197 45.9768 119.277 45.9616 119.334 45.9503L119.641 47.3537C119.542 47.3916 119.402 47.4295 119.22 47.4673C119.038 47.509 118.811 47.5317 118.538 47.5355C118.091 47.5431 117.675 47.4635 117.288 47.2969C116.902 47.1302 116.589 46.8726 116.351 46.5241C116.112 46.1757 115.993 45.7382 115.993 45.2116V36.6037ZM121.361 47.4219V38.6946H123.06V47.4219H121.361ZM122.219 37.348C121.923 37.348 121.67 37.2495 121.457 37.0526C121.249 36.8518 121.145 36.6132 121.145 36.3366C121.145 36.0563 121.249 35.8177 121.457 35.6207C121.67 35.42 121.923 35.3196 122.219 35.3196C122.514 35.3196 122.766 35.42 122.974 35.6207C123.187 35.8177 123.293 36.0563 123.293 36.3366C123.293 36.6132 123.187 36.8518 122.974 37.0526C122.766 37.2495 122.514 37.348 122.219 37.348ZM127.044 42.2401V47.4219H125.345V38.6946H126.976V40.1151H127.084C127.285 39.6529 127.599 39.2817 128.027 39.0014C128.459 38.7211 129.002 38.581 129.658 38.581C130.252 38.581 130.773 38.706 131.22 38.956C131.667 39.2022 132.014 39.5696 132.26 40.0582C132.506 40.5469 132.629 41.151 132.629 41.8707V47.4219H130.93V42.0753C130.93 41.4427 130.766 40.9484 130.436 40.5923C130.107 40.2325 129.654 40.0526 129.078 40.0526C128.684 40.0526 128.334 40.1378 128.027 40.3082C127.724 40.4787 127.483 40.7287 127.305 41.0582C127.131 41.384 127.044 41.7779 127.044 42.2401ZM138.567 50.8764C137.874 50.8764 137.277 50.7855 136.777 50.6037C136.281 50.4219 135.875 50.1813 135.561 49.8821C135.247 49.5829 135.012 49.2552 134.857 48.8991L136.317 48.2969C136.419 48.4635 136.555 48.6397 136.726 48.8253C136.9 49.0147 137.135 49.1757 137.43 49.3082C137.73 49.4408 138.114 49.5071 138.584 49.5071C139.228 49.5071 139.76 49.3499 140.18 49.0355C140.601 48.7249 140.811 48.2287 140.811 47.5469V45.831H140.703C140.601 46.0166 140.453 46.223 140.26 46.4503C140.071 46.6776 139.809 46.8745 139.476 47.0412C139.143 47.2079 138.709 47.2912 138.175 47.2912C137.485 47.2912 136.864 47.1302 136.311 46.8082C135.762 46.4825 135.326 46.0033 135.004 45.3707C134.686 44.7344 134.527 43.9522 134.527 43.0241C134.527 42.0961 134.684 41.3007 134.999 40.6378C135.317 39.9749 135.752 39.4673 136.305 39.1151C136.858 38.759 137.485 38.581 138.186 38.581C138.728 38.581 139.165 38.6719 139.499 38.8537C139.832 39.0317 140.091 39.2401 140.277 39.4787C140.466 39.7173 140.612 39.9276 140.714 40.1094H140.839V38.6946H142.504V47.6151C142.504 48.3651 142.33 48.9806 141.982 49.4616C141.633 49.9427 141.161 50.2988 140.567 50.5298C139.976 50.7609 139.309 50.8764 138.567 50.8764ZM138.55 45.8821C139.038 45.8821 139.451 45.7685 139.788 45.5412C140.129 45.3101 140.387 44.9806 140.561 44.5526C140.739 44.1207 140.828 43.6037 140.828 43.0014C140.828 42.4143 140.741 41.8973 140.567 41.4503C140.393 41.0033 140.137 40.6548 139.8 40.4048C139.463 40.151 139.046 40.0241 138.55 40.0241C138.038 40.0241 137.612 40.1567 137.271 40.4219C136.93 40.6832 136.673 41.0393 136.499 41.4901C136.328 41.9408 136.243 42.4446 136.243 43.0014C136.243 43.5734 136.33 44.0753 136.504 44.5071C136.679 44.9389 136.936 45.276 137.277 45.5185C137.622 45.7609 138.046 45.8821 138.55 45.8821Z" fill="#2E2F35"/>
</svg>
